<?xml version="1.0" encoding="utf-8"?>
<!-- Generator: Adobe Illustrator 25.2.0, SVG Export Plug-In . SVG Version: 6.00 Build 0)  -->
<svg version="1.1" id="Capa_1" xmlns="http://www.w3.org/2000/svg" xmlns:xlink="http://www.w3.org/1999/xlink" x="0px" y="0px"
	 viewBox="0 0 852.5 292.7" style="enable-background:new 0 0 852.5 292.7;" xml:space="preserve">
<style type="text/css">
	.st0{fill:#FFFFFF;}
	.st1{fill:url(#SVGID_1_);}
	.st2{fill:url(#SVGID_2_);}
	.st3{fill:url(#SVGID_3_);}
</style>
<g>
	<g>
		<path class="st0" d="M269.5,161.4c1.2,0,2.2,0.9,2.4,2.1c0.6,3.6,1.7,6.2,3.3,7.9c3.3,3.5,9.3,5.2,18.1,5.2
			c5.2,0,9.3-0.8,12.4-2.3c3.1-1.5,4.6-3.8,4.6-6.9c0-2.9-1.2-5.2-3.7-6.7c-2.5-1.5-11.6-4.2-27.5-7.9c-11.4-2.8-19.4-6.4-24.1-10.6
			c-4.7-4.2-7-10.2-7-18c0-9.3,3.6-17.2,10.9-23.9c7.3-6.7,17.6-10,30.8-10c12.5,0,22.8,2.5,30.7,7.5c7.3,4.6,11.7,12.3,13.3,23.1
			c0.2,1.5-0.9,2.8-2.4,2.8H310c-1.2,0-2.2-0.9-2.4-2c-0.5-2.4-1.3-4.4-2.6-6c-2.9-3.6-7.8-5.3-14.8-5.3c-5.7,0-9.8,0.9-12.2,2.7
			c-2.4,1.8-3.6,3.9-3.6,6.3c0,3,1.3,5.2,3.9,6.5c2.6,1.4,11.7,3.8,27.4,7.3c10.5,2.5,18.3,6.2,23.5,11.1c5.2,5,7.7,11.3,7.7,18.9
			c0,9.9-3.7,18.1-11.1,24.4c-7.4,6.3-18.9,9.4-34.4,9.4c-15.8,0-27.5-3.3-35-10c-6.9-6.1-10.6-13.7-11.2-22.8
			c-0.1-1.4,1-2.6,2.5-2.6H269.5z"/>
		<path class="st0" d="M440.6,103.9c8.2,8.7,12.3,21.4,12.3,38.1c0,17.7-4,31.2-12,40.4c-8,9.3-18.3,13.9-30.9,13.9
			c-8,0-14.7-2-20-6c-2.9-2.2-5.7-5.4-8.5-9.7v49.9c0,1.4-1.1,2.5-2.5,2.5h-21.1c-1.4,0-2.5-1.1-2.5-2.5v-135c0-1.4,1.1-2.5,2.5-2.5
			h20.2c1.4,0,2.5,1.1,2.5,2.5v12.4c2.8-4.4,5.9-7.8,9.1-10.3c5.9-4.5,12.9-6.7,20.9-6.7C422.4,90.9,432.4,95.2,440.6,103.9z
			 M420.5,122.8c-3.6-6-9.3-8.9-17.3-8.9c-9.6,0-16.2,4.5-19.8,13.5c-1.9,4.8-2.8,10.9-2.8,18.2c0,11.7,3.1,19.9,9.4,24.6
			c3.7,2.8,8.1,4.1,13.2,4.1c7.4,0,13-2.8,16.9-8.5c3.9-5.6,5.8-13.2,5.8-22.6C425.8,135.6,424,128.7,420.5,122.8z"/>
		<path class="st0" d="M495.7,193.5h-21.3c-1.4,0-2.5-1.1-2.5-2.5V60.2c0-1.4,1.1-2.5,2.5-2.5h21.3c1.4,0,2.5,1.1,2.5,2.5V191
			C498.2,192.4,497.1,193.5,495.7,193.5z"/>
		<path class="st0" d="M548.3,81.1h-21.7c-1.4,0-2.5-1.1-2.5-2.5V59.4c0-1.4,1.1-2.5,2.5-2.5h21.7c1.4,0,2.5,1.1,2.5,2.5v19.3
			C550.8,80,549.7,81.1,548.3,81.1z M526.6,93.1h21.7c1.4,0,2.5,1.1,2.5,2.5V191c0,1.4-1.1,2.5-2.5,2.5h-21.7
			c-1.4,0-2.5-1.1-2.5-2.5V95.6C524.2,94.2,525.3,93.1,526.6,93.1z"/>
		<path class="st0" d="M625.8,93c6.4,2.6,11.5,7.5,15.5,14.5v-12c0-1.4,1.1-2.5,2.5-2.5h20.7c1.4,0,2.5,1.1,2.5,2.5v94
			c0,13-2.2,22.7-6.5,29.3c-7.5,11.3-21.9,16.9-43.1,16.9c-12.8,0-23.3-2.5-31.4-7.6c-7.3-4.6-11.7-11.1-13.1-19.8
			c-0.2-1.5,0.9-2.8,2.4-2.8h21.5c1,0,1.8,0.6,2.2,1.4c1,2.3,3,4.1,4.4,5.2c2.8,2.4,8.8,3.6,15.5,3.6c9.5,0,15.8-3.2,19-9.5
			c2.1-4.1,3.1-10.9,3.1-20.4v-7.7c-2.5,4.3-5.2,7.5-8.1,9.7c-5.2,4-12,6-20.4,6c-12.9,0-23.2-4.5-30.9-13.6
			c-7.7-9.1-11.6-21.3-11.6-36.8c0-14.9,3.7-27.5,11.1-37.6c7.4-10.2,17.9-15.2,31.5-15.2C617.7,90.7,622.1,91.5,625.8,93z
			 M634.8,165c4.2-4.6,6.3-12,6.3-22.1c0-9.5-2-16.8-6-21.7c-4-5-9.4-7.5-16.1-7.5c-9.2,0-15.5,4.3-19,13c-1.8,4.6-2.8,10.3-2.8,17
			c0,5.8,1,11,2.9,15.6c3.5,8.5,9.9,12.7,19.1,12.7C625.4,171.9,630.6,169.6,634.8,165z"/>
		<path class="st0" d="M763.5,93.7c5,2.2,9.2,5.4,12.4,9.9c2.8,3.7,4.4,7.6,5,11.6c0.6,4,0.9,10.4,0.9,19.4V191
			c0,1.4-1.1,2.5-2.5,2.5h-21.9c-1.4,0-2.5-1.1-2.5-2.5v-58.7c0-5.4-0.9-9.8-2.7-13.1c-2.4-4.7-6.9-7-13.5-7c-6.9,0-12.1,2.3-15.7,7
			s-5.3,11.3-5.3,19.9V191c0,1.4-1.1,2.5-2.5,2.5H694c-1.4,0-2.5-1.1-2.5-2.5V60.7c0-1.4,1.1-2.5,2.5-2.5h21.3
			c1.4,0,2.5,1.1,2.5,2.5v45.4c3.8-5.8,8.2-9.9,13.2-12.2c5-2.3,10.2-3.5,15.7-3.5C752.9,90.4,758.5,91.5,763.5,93.7z"/>
		<path class="st0" d="M796.3,110.3V96.5c0-1.4,1.1-2.5,2.5-2.5h11.5V68.5c0-1.4,1.1-2.5,2.5-2.5h21.1c1.4,0,2.5,1.1,2.5,2.5v25.2
			c0,0.2,0.1,0.3,0.3,0.3h13.5c1.4,0,2.5,1.1,2.5,2.5v13.8c0,1.4-1.1,2.5-2.5,2.5h-13.8v53c0,4.1,0.5,6.7,1.6,7.7
			c1,1,4.2,1.5,9.6,1.5c0.8,0,1.6,0,2.5,0l0.1,0c1.4,0,2.6,1.1,2.6,2.5V192c0,1.3-1,2.4-2.4,2.5l-10.1,0.4
			c-12.4,0.4-20.9-1.7-25.4-6.4c-2.9-3-4.4-7.6-4.4-13.9v-61.8h-11.5C797.4,112.7,796.3,111.6,796.3,110.3z"/>
	</g>
	<g>
		
			<linearGradient id="SVGID_1_" gradientUnits="userSpaceOnUse" x1="27.6722" y1="84.4473" x2="-83.4163" y2="265.6275" gradientTransform="matrix(0.9475 5.249054e-02 5.249054e-02 0.9475 92.2959 -89.312)">
			<stop  offset="0" style="stop-color:#92FE9D"/>
			<stop  offset="1" style="stop-color:#44D1C2"/>
		</linearGradient>
		<path class="st1" d="M143.9,36.5L36.5,143.9c-8.4,8.4-21.9,8.4-30.2,0l0,0c-8.4-8.4-8.4-21.9,0-30.2L113.6,6.3
			c8.4-8.4,21.9-8.4,30.2,0l0,0C152.2,14.6,152.2,28.2,143.9,36.5z"/>
		
			<linearGradient id="SVGID_2_" gradientUnits="userSpaceOnUse" x1="52.5938" y1="235.0245" x2="-59.3723" y2="415.8538" gradientTransform="matrix(0.9389 6.112514e-02 6.112514e-02 0.9389 89.3236 -86.3396)">
			<stop  offset="0" style="stop-color:#92FE9D"/>
			<stop  offset="1" style="stop-color:#44D1C2"/>
		</linearGradient>
		<path class="st2" d="M173.5,181.8L68.8,286.5c-8.4,8.4-21.9,8.4-30.2,0l0,0c-8.4-8.4-8.4-21.9,0-30.2l104.7-104.7
			c8.4-8.4,21.9-8.4,30.2,0l0,0C181.9,159.9,181.9,173.4,173.5,181.8z"/>
		
			<linearGradient id="SVGID_3_" gradientUnits="userSpaceOnUse" x1="2558.7471" y1="-329.9523" x2="2455.9104" y2="-301.3118" gradientTransform="matrix(0.735 -0.735 0.7071 0.7071 -1529.0481 2213.0107)">
			<stop  offset="0" style="stop-color:#92FE9D"/>
			<stop  offset="1" style="stop-color:#44D1C2"/>
		</linearGradient>
		<path class="st3" d="M100.4,106.9l-49.9,49.9c-8.4,8.4-8.4,21.9,0,30.2l0,0c8.4,8.4,21.9,8.4,30.2,0l49.9-49.9
			c8.4-8.4,8.4-21.9,0-30.2l0,0C122.3,98.6,108.8,98.6,100.4,106.9z"/>
	</g>
</g>
</svg>
