<?xml version="1.0" encoding="utf-8"?>
<!-- Generator: Adobe Illustrator 25.3.1, SVG Export Plug-In . SVG Version: 6.00 Build 0)  -->
<svg version="1.1" id="Capa_1" xmlns="http://www.w3.org/2000/svg" xmlns:xlink="http://www.w3.org/1999/xlink" x="0px" y="0px"
	 viewBox="0 0 852.54 292.75" style="enable-background:new 0 0 852.54 292.75;" xml:space="preserve">
<style type="text/css">
	.st0{clip-path:url(#SVGID_2_);}
	.st1{clip-path:url(#SVGID_4_);}
	.st2{fill:#1D1D1B;}
	.st3{fill:url(#SVGID_7_);}
	.st4{fill:url(#SVGID_8_);}
	.st5{fill:url(#SVGID_9_);}
	.st6{fill:#FFFFFF;}
	.st7{clip-path:url(#SVGID_11_);}
	.st8{clip-path:url(#SVGID_13_);}
	.st9{fill:#1A1A23;}
	.st10{clip-path:url(#SVGID_17_);}
	.st11{clip-path:url(#SVGID_19_);}
	.st12{clip-path:url(#SVGID_23_);}
	.st13{clip-path:url(#SVGID_25_);}
	.st14{clip-path:url(#SVGID_29_);}
	.st15{clip-path:url(#SVGID_31_);}
	.st16{fill:url(#SVGID_34_);}
	.st17{fill:url(#SVGID_35_);}
	.st18{fill:url(#SVGID_36_);}
	.st19{fill:url(#SVGID_37_);}
	.st20{fill:url(#SVGID_38_);}
	.st21{fill:url(#SVGID_39_);}
	.st22{clip-path:url(#SVGID_41_);}
	.st23{clip-path:url(#SVGID_43_);}
	.st24{clip-path:url(#SVGID_47_);}
	.st25{clip-path:url(#SVGID_49_);}
	.st26{fill:url(#SVGID_52_);}
	.st27{fill:url(#SVGID_53_);}
	.st28{fill:url(#SVGID_54_);}
	.st29{clip-path:url(#SVGID_56_);}
	.st30{clip-path:url(#SVGID_58_);}
	.st31{fill:url(#SVGID_61_);}
	.st32{fill:url(#SVGID_62_);}
	.st33{fill:url(#SVGID_63_);}
	.st34{fill:url(#SVGID_64_);}
	.st35{fill:url(#SVGID_65_);}
	.st36{fill:url(#SVGID_66_);}
	.st37{fill:url(#SVGID_67_);}
	.st38{fill:url(#SVGID_68_);}
	.st39{fill:url(#SVGID_69_);}
	.st40{fill:url(#SVGID_70_);}
	.st41{fill:url(#SVGID_71_);}
	.st42{fill:url(#SVGID_72_);}
	.st43{fill:url(#SVGID_73_);}
	.st44{fill:url(#SVGID_74_);}
	.st45{fill:url(#SVGID_75_);}
	.st46{fill:url(#SVGID_76_);}
	.st47{fill:url(#SVGID_77_);}
	.st48{fill:url(#SVGID_78_);}
	.st49{fill:url(#SVGID_79_);}
	.st50{fill:url(#SVGID_80_);}
	.st51{fill:url(#SVGID_81_);}
	.st52{fill:url(#SVGID_82_);}
	.st53{fill:url(#SVGID_83_);}
	.st54{fill:url(#SVGID_84_);}
	.st55{fill:url(#SVGID_85_);}
	.st56{fill:url(#SVGID_86_);}
	.st57{fill:url(#SVGID_87_);}
	.st58{fill:url(#SVGID_88_);}
	.st59{fill:url(#SVGID_89_);}
	.st60{fill:url(#SVGID_90_);}
	.st61{fill:url(#SVGID_91_);}
	.st62{fill:url(#SVGID_92_);}
	.st63{fill:url(#SVGID_93_);}
	.st64{fill:url(#SVGID_94_);}
	.st65{fill:url(#SVGID_95_);}
	.st66{fill:url(#SVGID_96_);}
	.st67{fill:url(#SVGID_97_);}
	.st68{fill:url(#SVGID_98_);}
	.st69{fill:url(#SVGID_99_);}
	.st70{fill:url(#SVGID_100_);}
	.st71{fill:url(#SVGID_101_);}
	.st72{fill:url(#SVGID_102_);}
</style>
<g>
	<g>
		<path d="M269.54,161.45c1.2,0,2.21,0.88,2.42,2.06c0.64,3.6,1.74,6.23,3.31,7.89c3.27,3.5,9.31,5.25,18.14,5.25
			c5.18,0,9.3-0.77,12.35-2.3c3.05-1.53,4.58-3.84,4.58-6.91c0-2.95-1.23-5.19-3.69-6.72c-2.46-1.53-11.61-4.17-27.46-7.92
			c-11.41-2.82-19.44-6.35-24.11-10.59c-4.67-4.17-7-10.19-7-18.05c0-9.27,3.64-17.23,10.94-23.9c7.29-6.66,17.55-9.99,30.78-9.99
			c12.55,0,22.78,2.5,30.68,7.51c7.29,4.61,11.71,12.32,13.28,23.11c0.21,1.48-0.94,2.81-2.44,2.81h-21.37
			c-1.19,0-2.18-0.86-2.41-2.02c-0.49-2.44-1.34-4.43-2.55-5.99c-2.9-3.56-7.82-5.34-14.78-5.34c-5.73,0-9.8,0.89-12.23,2.67
			c-2.43,1.78-3.65,3.87-3.65,6.26c0,3.01,1.29,5.19,3.88,6.54c2.58,1.41,11.72,3.84,27.4,7.27c10.45,2.46,18.29,6.17,23.51,11.14
			c5.16,5.03,7.74,11.33,7.74,18.88c0,9.95-3.71,18.07-11.12,24.36c-7.41,6.29-18.87,9.44-34.37,9.44
			c-15.81,0-27.48-3.33-35.02-9.99c-6.89-6.09-10.63-13.71-11.22-22.85c-0.09-1.41,1.04-2.61,2.46-2.61H269.54z"/>
		<path d="M440.6,103.89c8.19,8.66,12.28,21.36,12.28,38.12c0,17.68-4,31.16-12,40.43c-8,9.27-18.3,13.91-30.91,13.91
			c-8.03,0-14.71-2-20.02-5.99c-2.9-2.21-5.75-5.43-8.53-9.67v49.85c0,1.36-1.1,2.46-2.46,2.46h-21.06c-1.36,0-2.46-1.1-2.46-2.46
			V95.57c0-1.36,1.1-2.46,2.46-2.46h20.23c1.36,0,2.46,1.1,2.46,2.46v12.37c2.84-4.36,5.87-7.8,9.08-10.31
			c5.87-4.48,12.85-6.72,20.95-6.72C422.42,90.91,432.42,95.24,440.6,103.89z M420.46,122.77c-3.57-5.95-9.35-8.93-17.35-8.93
			c-9.62,0-16.22,4.51-19.82,13.54c-1.86,4.79-2.79,10.87-2.79,18.23c0,11.66,3.13,19.86,9.39,24.59c3.72,2.76,8.13,4.14,13.21,4.14
			c7.38,0,13.01-2.82,16.89-8.47c3.88-5.65,5.82-13.17,5.82-22.56C425.81,135.57,424.03,128.72,420.46,122.77z"/>
		<path d="M495.73,193.49H474.4c-1.36,0-2.46-1.1-2.46-2.46V60.21c0-1.36,1.1-2.46,2.46-2.46h21.33c1.36,0,2.46,1.1,2.46,2.46
			v130.83C498.19,192.39,497.09,193.49,495.73,193.49z"/>
		<path d="M548.32,81.15h-21.7c-1.36,0-2.46-1.1-2.46-2.46V59.38c0-1.36,1.1-2.46,2.46-2.46h21.7c1.36,0,2.46,1.1,2.46,2.46v19.31
			C550.77,80.05,549.67,81.15,548.32,81.15z M526.61,93.12h21.7c1.36,0,2.46,1.1,2.46,2.46v95.46c0,1.36-1.1,2.46-2.46,2.46h-21.7
			c-1.36,0-2.46-1.1-2.46-2.46V95.57C524.16,94.22,525.26,93.12,526.61,93.12z"/>
		<path d="M625.84,93.02c6.38,2.64,11.53,7.49,15.45,14.55v-12c0-1.36,1.1-2.46,2.46-2.46h20.69c1.36,0,2.46,1.1,2.46,2.46v94.02
			c0,12.95-2.18,22.71-6.54,29.28c-7.49,11.29-21.86,16.94-43.1,16.94c-12.83,0-23.3-2.52-31.4-7.55
			c-7.33-4.55-11.69-11.14-13.1-19.75c-0.24-1.48,0.93-2.81,2.43-2.81h21.51c0.96,0,1.84,0.56,2.23,1.43
			c1.03,2.33,2.97,4.07,4.36,5.2c2.82,2.39,8.84,3.59,15.53,3.59c9.45,0,15.78-3.16,18.97-9.48c2.09-4.05,3.13-10.87,3.13-20.44
			v-7.7c-2.52,4.3-5.22,7.52-8.1,9.67c-5.22,3.99-12,5.99-20.35,5.99c-12.89,0-23.19-4.53-30.9-13.58
			c-7.7-9.05-11.56-21.32-11.56-36.79c0-14.92,3.71-27.46,11.13-37.62c7.42-10.16,17.93-15.24,31.55-15.24
			C617.72,90.72,622.1,91.49,625.84,93.02z M634.78,164.99c4.22-4.63,6.33-12.02,6.33-22.15c0-9.52-2-16.76-6.01-21.73
			c-4-4.97-9.37-7.46-16.09-7.46c-9.17,0-15.5,4.33-18.98,12.98c-1.84,4.6-2.75,10.28-2.75,17.04c0,5.83,0.98,11.02,2.93,15.56
			c3.55,8.47,9.9,12.71,19.08,12.71C625.4,171.94,630.56,169.63,634.78,164.99z"/>
		<path d="M763.53,93.67c5.04,2.15,9.18,5.44,12.42,9.86c2.75,3.75,4.43,7.61,5.04,11.57c0.61,3.96,0.92,10.43,0.92,19.4v56.53
			c0,1.36-1.1,2.46-2.46,2.46h-21.89c-1.36,0-2.46-1.1-2.46-2.46v-58.67c0-5.41-0.91-9.77-2.74-13.09
			c-2.38-4.67-6.89-7.01-13.53-7.01c-6.89,0-12.11,2.32-15.68,6.96s-5.35,11.26-5.35,19.87v51.94c0,1.36-1.1,2.46-2.46,2.46h-21.33
			c-1.36,0-2.46-1.1-2.46-2.46V60.67c0-1.36,1.1-2.46,2.46-2.46h21.33c1.36,0,2.46,1.1,2.46,2.46v45.43
			c3.79-5.83,8.18-9.9,13.16-12.2c4.98-2.3,10.22-3.45,15.72-3.45C752.87,90.45,758.48,91.52,763.53,93.67z"/>
		<path d="M796.28,110.28V96.49c0-1.36,1.1-2.46,2.46-2.46h11.54V68.5c0-1.36,1.1-2.46,2.46-2.46h21.06c1.36,0,2.46,1.1,2.46,2.46
			v25.24c0,0.17,0.14,0.3,0.3,0.3h13.54c1.36,0,2.46,1.1,2.46,2.46v13.78c0,1.36-1.1,2.46-2.46,2.46h-13.84v53.04
			c0,4.11,0.52,6.68,1.57,7.69c1.04,1.01,4.24,1.52,9.58,1.52c0.8,0,1.64-0.01,2.53-0.05l0.06,0c1.4-0.05,2.56,1.07,2.56,2.47v14.64
			c0,1.32-1.04,2.4-2.36,2.45l-10.07,0.37c-12.4,0.43-20.87-1.72-25.42-6.45c-2.95-3.01-4.42-7.64-4.42-13.91v-61.79h-11.54
			C797.37,112.73,796.28,111.63,796.28,110.28z"/>
	</g>
	<g>
		
			<linearGradient id="SVGID_2_" gradientUnits="userSpaceOnUse" x1="-134.8809" y1="247.0004" x2="-245.9693" y2="428.1806" gradientTransform="matrix(0.9475 0.0525 0.0525 0.9475 237.7839 -234.8)">
			<stop  offset="0" style="stop-color:#92FE9D"/>
			<stop  offset="1" style="stop-color:#44D1C2"/>
		</linearGradient>
		<path style="fill:url(#SVGID_2_);" d="M143.88,36.51L36.51,143.88c-8.35,8.35-21.9,8.35-30.25,0l0,0c-8.35-8.35-8.35-21.9,0-30.25
			L113.64,6.26c8.35-8.35,21.9-8.35,30.25,0l0,0C152.24,14.62,152.24,28.16,143.88,36.51z"/>
		
			<linearGradient id="SVGID_4_" gradientUnits="userSpaceOnUse" x1="-140.4231" y1="428.0414" x2="-252.3892" y2="608.8708" gradientTransform="matrix(0.9389 0.0611 0.0611 0.9389 258.7441 -255.7602)">
			<stop  offset="0" style="stop-color:#92FE9D"/>
			<stop  offset="1" style="stop-color:#44D1C2"/>
		</linearGradient>
		<path style="fill:url(#SVGID_4_);" d="M173.52,181.77L68.8,286.48c-8.35,8.35-21.9,8.35-30.25,0l0,0c-8.35-8.35-8.35-21.9,0-30.25
			l104.72-104.72c8.35-8.35,21.9-8.35,30.25,0l0,0C181.87,159.87,181.87,173.41,173.52,181.77z"/>
		
			<linearGradient id="SVGID_6_" gradientUnits="userSpaceOnUse" x1="6146.5166" y1="-3408.9131" x2="6043.6802" y2="-3380.2727" gradientTransform="matrix(0.735 -0.735 0.7071 0.7071 -1988.7635 7027.0347)">
			<stop  offset="0" style="stop-color:#92FE9D"/>
			<stop  offset="1" style="stop-color:#44D1C2"/>
		</linearGradient>
		<path style="fill:url(#SVGID_6_);" d="M100.4,106.94l-49.95,49.95c-8.35,8.35-8.35,21.9,0,30.25l0,0c8.35,8.35,21.9,8.35,30.25,0
			l49.95-49.95c8.35-8.35,8.35-21.9,0-30.25l0,0C122.3,98.59,108.76,98.59,100.4,106.94z"/>
	</g>
</g>
</svg>
